<svg xmlns="http://www.w3.org/2000/svg" viewBox="0 0 77.88 78.82"><defs><style>.cls-1{fill:#493423;}</style></defs><g id="Calque_2" data-name="Calque 2"><g id="Calque_1-2" data-name="Calque 1"><path class="cls-1" d="M.19,0A68.87,68.87,0,0,1,9.38,2.43Q42.47,11.9,75.51,21.5c.83.24,2.13,0,2.35,1.27.18,1.05-.9,1.45-1.5,2Q48.93,51.23,21.45,77.61c-.55.54-1,1.49-2,1.13-.79-.29-.67-1.21-.84-1.91Q9.45,39.64.23,2.48A4,4,0,0,1,.19,0ZM26.48,27,26,27l.23.27c1,5.21,2.4,10.3,3.93,16.23L41.31,31.17Zm34.3,8,.45.15v-.51C60,29.46,58.75,24.35,57.31,18.48L46.15,30.86ZM31.51,64,16.13,59.59c1.41,5.7,2.74,11.06,4.2,17ZM28.28,43.73l-4.15-17L12.85,39.28Zm32.95-6.79L44.84,32.28c1.41,5.68,2.7,10.94,4.07,16.47Zm-18-3.89-.68-.34-10.93,12,15.6,4.49Zm-32.41,5L22,25.65,6.66,21.27ZM17.16,6.49,1.94,2.14,6.07,18.83C10,14.47,13.64,10.41,17.16,6.49Zm46,28.24.77.34,10.87-12L59.12,18.59C60.51,24.23,61.81,29.48,63.12,34.73ZM15.53,57.18,26.6,45,11.48,40.72Zm28.7-27.42L55.31,17.47,40.13,13.13ZM19.5,8.08,7.42,19.66l16.08,4.6C22.13,18.7,20.84,13.52,19.5,8.08ZM17.73,58.24,33,62.58C31.59,57,30.3,51.86,29,46.68l-.67-.26ZM21.19,7.65l4.1,16.58L36.26,12ZM34.85,62.94l11-12.34L30.72,46.25ZM26.39,25.1l16,4.55-4-16.07Z"/></g></g></svg>