<svg xmlns="http://www.w3.org/2000/svg" viewBox="0 0 87.37 74.88"><defs><style>.cls-1{fill:#493423;}</style></defs><g id="Calque_2" data-name="Calque 2"><g id="Calque_1-2" data-name="Calque 1"><path class="cls-1" d="M87.37.05,43.68,74.88,0,.05c11.37,0,22.14,0,32.91,0,1.57,0,1.93,1,2.47,2,2.69,4.94,5.37,9.88,8.29,15.26,3.33-5.24,6.53-10.08,9.51-15a4,4,0,0,1,4-2.26C67.05.1,76.87.05,87.37.05ZM43.69,62.6l33-56.47c-3,0-5.36.18-7.69,0s-3.38.74-4.44,2.64c-4,7.26-8.27,14.42-12.43,21.61-2.74,4.73-5.48,9.46-8.41,14.5C36.46,32.38,29.53,20.41,22.59,8.44,22,7.39,21.7,6,20,6.1c-2.92.1-5.85,0-9.25,0Z"/></g></g></svg>