<?xml version="1.0" encoding="UTF-8"?><svg id="Calque_2" xmlns="http://www.w3.org/2000/svg" viewBox="0 0 127.84 223.63"><defs><style>.cls-1{fill:#fff0d9;}</style></defs><g id="Calque_1-2"><g><path class="cls-1" d="M89.82,112.02c-6.67-6.64-12.77-12.69-18.85-18.76C49.09,71.4,27.21,49.54,5.36,27.65-1,21.28-1.74,12.87,3.36,6.41,9.5-1.35,19.81-2.23,26.93,4.67c8.15,7.89,16.09,16,24.12,24.03,23.36,23.37,46.73,46.74,70.08,70.12,8.93,8.93,8.94,16.95,.04,25.85-31.12,31.14-62.24,62.27-93.38,93.39-7.44,7.44-16.98,7.4-23.64,0-5.46-6.07-5.54-14.6-.16-20.75,.98-1.12,2.07-2.16,3.13-3.22,26.37-26.36,52.74-52.73,79.12-79.08,.97-.97,2.1-1.77,3.58-3Z"/><path class="cls-1" d="M15.85,95.89c9.75-.04,15.95,6.08,15.98,15.79,.03,9.72-6.18,15.99-15.8,15.97-9.01-.02-15.88-6.81-15.95-15.77-.08-9.69,6.09-15.95,15.77-15.98Z"/></g></g></svg>